<?xml version="1.0" standalone="no"?>
<!DOCTYPE svg PUBLIC "-//W3C//DTD SVG 20010904//EN"
 "http://www.w3.org/TR/2001/REC-SVG-20010904/DTD/svg10.dtd">
<svg version="1.0" xmlns="http://www.w3.org/2000/svg"
 width="2000.000000pt" height="2000.000000pt" viewBox="0 0 2000.000000 2000.000000"
 preserveAspectRatio="xMidYMid meet">

<g transform="translate(0.000000,2000.000000) scale(0.100000,-0.100000)"
fill="#000000" stroke="none">
<path d="M0 10000 l0 -10000 10000 0 10000 0 0 10000 0 10000 -10000 0 -10000
0 0 -10000z m11358 3092 c13 -7 32 -28 42 -45 19 -30 20 -53 20 -393 0 -359 0
-361 -23 -395 -13 -19 -39 -40 -61 -48 -33 -13 -44 -13 -79 0 -76 27 -81 44
-87 265 l-5 195 -540 -534 c-297 -294 -550 -539 -562 -545 -27 -15 -85 -15
-116 -1 -14 6 -136 130 -272 275 -247 264 -247 264 -264 241 -10 -12 -150
-206 -311 -431 -182 -253 -306 -416 -325 -427 -64 -40 -146 -12 -177 59 -17
38 -18 51 -9 81 14 48 722 1031 758 1053 16 10 47 18 71 18 54 0 70 -15 369
-336 l217 -233 305 299 c168 164 387 380 486 479 l180 181 -167 0 c-94 0 -179
5 -195 11 -116 44 -114 203 3 239 48 15 715 8 742 -8z m174 -1300 c27 -13 63
-42 82 -64 68 -79 66 -46 66 -925 l0 -793 -450 0 -450 0 0 796 c0 582 3 807
12 836 13 45 77 122 119 143 55 29 106 34 339 32 224 -2 237 -3 282 -25z
m-1224 -518 c57 -28 96 -69 123 -129 17 -37 19 -79 19 -587 l0 -548 -450 0
-450 0 0 538 c1 572 1 573 51 646 25 37 76 75 123 93 20 8 116 12 282 12 249
1 250 1 302 -25z m-1243 -508 c57 -24 100 -63 131 -118 l29 -53 3 -292 3 -293
-450 0 -451 0 0 283 c0 172 4 297 11 321 14 49 103 141 150 154 19 6 148 11
287 11 200 1 260 -2 287 -13z m2875 -1073 c-1 -91 -16 -178 -43 -235 -32 -71
-108 -145 -187 -182 l-65 -31 -1645 0 -1645 0 -57 27 c-80 37 -152 107 -191
187 -29 60 -32 75 -36 178 l-3 113 1936 0 1936 0 0 -57z m-4905 -1308 c72 -15
211 -77 255 -113 l25 -20 -65 -94 -64 -94 -97 50 c-89 45 -104 50 -181 54
-121 6 -168 -21 -168 -98 0 -70 31 -90 225 -144 301 -84 397 -181 382 -384 -7
-95 -41 -166 -108 -226 -138 -124 -412 -138 -634 -31 -76 36 -168 101 -163
115 2 5 34 47 72 93 l69 84 73 -47 c90 -59 148 -80 239 -87 127 -10 198 28
198 106 0 23 -6 48 -13 57 -23 26 -84 52 -198 83 -201 55 -271 88 -331 157
-52 59 -65 98 -65 199 -1 76 3 98 25 145 79 169 284 246 524 195z m6048 -1
c387 -100 569 -525 374 -874 -47 -84 -158 -188 -248 -233 -308 -152 -679 -40
-832 251 -178 338 10 759 383 856 75 20 247 20 323 0z m-4898 -18 c118 -31
222 -114 267 -213 19 -41 22 -66 23 -168 0 -109 -2 -125 -26 -176 -36 -75 -86
-130 -156 -167 -93 -49 -155 -62 -315 -69 l-148 -6 0 -169 0 -168 -130 0 -130
0 0 575 0 575 283 0 c203 0 296 -4 332 -14z m1355 -96 l0 -110 -307 -2 -308
-3 0 -115 0 -115 273 -3 272 -2 0 -110 0 -110 -272 -2 -273 -3 -3 -117 -3
-118 316 0 315 0 0 -115 0 -115 -440 0 -440 0 0 575 0 575 435 0 435 0 0 -110z
m740 -243 l265 -349 3 351 2 351 125 0 125 0 0 -575 0 -576 -112 3 -111 3
-271 355 -271 356 -3 -358 -2 -358 -130 0 -130 0 0 575 0 576 122 -3 122 -3
266 -348z m1410 337 c304 -71 492 -355 437 -661 -34 -185 -148 -332 -323 -415
-105 -49 -171 -58 -466 -58 l-268 0 0 575 0 575 278 0 c213 0 292 -4 342 -16z"/>
<path d="M12830 8154 c-77 -20 -144 -69 -190 -137 -98 -146 -76 -360 51 -479
71 -67 140 -91 249 -86 141 5 232 66 293 196 29 60 32 77 32 157 0 76 -4 99
-27 147 -53 114 -121 173 -233 203 -72 18 -103 18 -175 -1z"/>
<path d="M7830 7974 l0 -176 133 4 c115 3 137 7 172 26 66 38 80 65 80 154 0
68 -3 79 -25 104 -48 51 -92 64 -232 64 l-128 0 0 -176z"/>
<path d="M11330 7805 l0 -347 143 4 c100 4 156 10 189 23 70 25 139 92 174
167 25 55 29 75 29 153 0 77 -4 99 -29 151 -33 73 -93 135 -161 166 -43 20
-70 23 -197 26 l-148 4 0 -347z"/>
</g>
</svg>
